<svg xmlns="http://www.w3.org/2000/svg" viewBox="0 0 794.79 388.96"><polygon points="645.81 30.72 660.75 36.26 672.49 313.02 635.21 313.02 637.77 59.74 645.81 30.72" style="fill:#dddfe2"/><polygon points="593.68 33.4 645.81 30.72 651.17 314.3 593.55 312.23 593.68 33.4" style="fill:#eeeff1"/><polygon points="553 12.77 575.47 18.38 592.83 328.34 558.62 331.92 536.66 52.09 553 12.77" style="fill:#cccfd4"/><polygon points="494.79 14.81 553 12.77 563.72 316.08 492.34 316.08 494.79 14.81" style="fill:#eeeff1"/><polygon points="325.77 0 371.72 10.21 379.89 314.04 340.57 313.53 318.11 27.06 325.77 0" style="fill:#dddfe2"/><polygon points="280.32 305.36 285.43 3.06 325.77 0 345.17 305.36 280.32 305.36" style="fill:#eeeff1"/><polygon points="303.98 232.07 357.18 229.5 361.94 312.33 305.12 316.33 303.98 232.07" style="fill:#cccfd4"/><polygon points="307.71 243.15 354.14 240.59 354.33 247.49 307.91 249.62 307.71 243.15" style="fill:#abafb8"/><polygon points="307.94 261.88 362.41 259.6 362.97 266.89 308.13 268.78 307.94 261.88" style="fill:#abafb8"/><polygon points="307.8 280.27 360.73 278.32 360.54 285.21 308.38 286.8 307.8 280.27" style="fill:#abafb8"/><polygon points="230.28 15.34 260.36 24.51 271.64 326.3 231.81 325.28 218.02 42.89 230.28 15.34" style="fill:#cccfd4"/><polygon points="187.89 319.15 201.68 17.36 230.28 15.34 237.94 319.66 187.89 319.15" style="fill:#eeeff1"/><polygon points="480.4 98 674.96 69.66 673.43 76.04 481.94 111.19 480.4 98" style="fill:#cccfd4"/><polygon points="674.96 69.66 674.23 105.4 671.68 105.15 670.62 74 674.96 69.66" style="fill:#cccfd4"/><polygon points="651.72 77.06 671.68 105.15 669.64 107.19 647.13 76.55 651.72 77.06" style="fill:#cccfd4"/><polygon points="652.28 105.15 685.98 102.6 697.72 109.75 659.94 110.25 652.28 105.15" style="fill:#cccfd4"/><polygon points="674.96 69.66 523.98 61.87 480.4 98 485.77 101.03 525.71 66.08 669.56 71.93 674.96 69.66" style="fill:#cccfd4"/><polygon points="522.51 68.89 519.98 307.87 529 307.87 529 64.2 523.98 65.34 522.51 68.89" style="fill:#cccfd4"/><polygon points="390.38 305.36 406.56 34.32 469.25 32.65 482.02 322.21 390.38 305.36" style="fill:#dddfe2"/><polygon points="469.25 32.65 504.49 43.14 512.66 316.74 467.21 321.72 469.25 32.65" style="fill:#bbbfc6"/><polygon points="443.98 51.57 452.66 51.32 452.66 64.6 443.72 64.6 443.98 51.57" style="fill:#abafb8"/><polygon points="421.77 51.83 430.45 51.83 430.7 63.83 421.77 64.08 421.77 51.83" style="fill:#abafb8"/><polygon points="443.98 80.68 452.66 80.68 452.4 93.96 443.47 94.21 443.98 80.68" style="fill:#abafb8"/><polygon points="422.28 80.68 430.45 80.43 430.45 93.96 422.28 93.96 422.28 80.68" style="fill:#abafb8"/><polygon points="443.4 111.32 451.83 111.13 451.64 123.38 442.83 123.77 443.4 111.32" style="fill:#abafb8"/><polygon points="422.34 112.08 430.19 111.7 430 123.57 421.96 123.77 422.34 112.08" style="fill:#abafb8"/><polygon points="443.21 141.96 452.02 141.57 451.83 154.02 443.02 154.4 443.21 141.96" style="fill:#abafb8"/><polygon points="421.96 143.49 429.62 142.91 429.43 154.02 421.38 154.6 421.96 143.49" style="fill:#abafb8"/><polygon points="441.87 270.09 449.53 269.49 449.34 281.14 441.3 281.75 441.87 270.09" style="fill:#abafb8"/><polygon points="443.21 172.79 452.02 172.4 451.84 185.04 443.21 185.43 443.21 172.79" style="fill:#abafb8"/><polygon points="443.21 205.15 451.83 204.77 451.45 217.4 443.02 217.6 443.21 205.15" style="fill:#abafb8"/><polygon points="442.64 236.75 451.25 236.36 451.25 250.34 442.45 250.91 442.64 236.75" style="fill:#abafb8"/><polygon points="283.28 92.17 308.92 100.6 318.62 312 284.4 317.62 283.28 92.17" style="fill:#bbbfc6"/><polygon points="195.04 94.47 283.28 92.17 285.75 313.23 189.68 315.06 195.04 94.47" style="fill:#dddfe2"/><polygon points="252.49 126.89 269.6 126.38 269.6 134.3 252.49 134.81 252.49 126.89" style="fill:#abafb8"/><polygon points="252.23 148.09 269.34 147.57 269.34 155.49 252.23 156 252.23 148.09" style="fill:#abafb8"/><polygon points="252.49 169.02 269.6 168.51 269.6 176.43 252.49 176.94 252.49 169.02" style="fill:#abafb8"/><polygon points="250.19 282.77 267.3 282.25 267.3 290.17 250.19 290.68 250.19 282.77" style="fill:#abafb8"/><polygon points="221.47 283.53 238.57 283.02 238.57 290.94 221.47 291.45 221.47 283.53" style="fill:#abafb8"/><polygon points="629.13 309.45 631.7 132.79 694.96 130.21 709.64 311.47 629.13 309.45" style="fill:#dddfe2"/><polygon points="694.96 130.21 715.51 134.68 730.3 307.05 703.64 310.47 694.96 130.21" style="fill:#bbbfc6"/><polygon points="642.27 144.73 648.68 144.54 648.68 155.65 641.98 155.94 642.27 144.73" style="fill:#bbbfc6"/><polygon points="659.37 144.19 665.79 144 666.01 155.04 659.25 155.23 659.37 144.19" style="fill:#bbbfc6"/><polygon points="676.32 143.43 682.73 143.23 682.96 154.28 676.19 154.47 676.32 143.43" style="fill:#bbbfc6"/><polygon points="642.46 164.36 648.87 164.17 648.87 175.28 642.17 175.56 642.46 164.36" style="fill:#bbbfc6"/><polygon points="659.56 163.82 665.98 163.63 666.2 174.67 659.44 174.86 659.56 163.82" style="fill:#bbbfc6"/><polygon points="677.02 163.05 683.44 162.86 683.66 173.9 676.89 174.1 677.02 163.05" style="fill:#bbbfc6"/><polygon points="644.95 276.19 651.36 276 651.36 287.11 644.66 287.39 644.95 276.19" style="fill:#bbbfc6"/><polygon points="662.05 275.65 668.47 275.46 668.69 286.5 661.93 286.69 662.05 275.65" style="fill:#bbbfc6"/><polygon points="679.51 274.88 685.93 274.69 686.15 285.73 679.38 285.93 679.51 274.88" style="fill:#bbbfc6"/><polygon points="643.35 209.04 649.77 208.85 649.77 219.96 643.06 220.25 643.35 209.04" style="fill:#bbbfc6"/><polygon points="660.52 208.12 666.94 207.93 667.16 218.97 660.39 219.16 660.52 208.12" style="fill:#bbbfc6"/><polygon points="659.88 186.16 666.3 185.97 666.52 197.01 659.75 197.2 659.88 186.16" style="fill:#bbbfc6"/><polygon points="678.36 207.67 684.78 207.48 685 218.52 678.23 218.71 678.36 207.67" style="fill:#bbbfc6"/><polygon points="643.54 231.06 649.96 230.87 649.96 241.98 643.25 242.27 643.54 231.06" style="fill:#bbbfc6"/><polygon points="661.1 230.52 667.51 230.33 667.73 241.37 660.97 241.56 661.1 230.52" style="fill:#bbbfc6"/><polygon points="679.06 229.95 685.48 229.75 685.7 240.8 678.94 240.99 679.06 229.95" style="fill:#bbbfc6"/><polygon points="679.45 252.16 685.86 251.97 686.09 263.01 679.32 263.2 679.45 252.16" style="fill:#bbbfc6"/><polygon points="677.6 185.2 684.01 185.01 684.23 196.05 677.47 196.25 677.6 185.2" style="fill:#bbbfc6"/><polygon points="51.91 318.74 57.97 132.79 60.97 132.79 56.47 323.79 51.91 318.74" style="fill:#cccfd4"/><polygon points="60.97 132.79 122.02 126.66 126.62 318.13 122.02 319.66 117.43 130.75 59.21 136.85 60.97 132.79" style="fill:#cccfd4"/><polygon points="122.02 126.66 163.64 135.57 167.85 314.68 164.02 315.83 159.81 138.25 120.36 131 122.02 126.66" style="fill:#cccfd4"/><polygon points="59.21 165.13 121.08 160.53 162.49 165.13 121.59 168.7 59.21 165.13" style="fill:#cccfd4"/><polygon points="59.21 190.34 121.53 185.75 163.25 190.34 122.06 193.91 59.21 190.34" style="fill:#cccfd4"/><polygon points="57.17 213.64 120.49 209.04 162.87 213.64 121.02 217.21 57.17 213.64" style="fill:#cccfd4"/><polygon points="57.17 236.3 121.17 231.7 164.02 236.3 121.71 239.87 57.17 236.3" style="fill:#cccfd4"/><polygon points="57.17 258.6 121.17 254 164.02 258.6 121.71 262.17 57.17 258.6" style="fill:#cccfd4"/><polygon points="57.17 280.43 121.17 275.83 164.02 280.43 121.71 284 57.17 280.43" style="fill:#cccfd4"/><polygon points="57.17 301.72 121.17 297.13 164.02 301.72 121.71 305.3 57.17 301.72" style="fill:#cccfd4"/><polygon points="57.97 132.79 108.49 139.4 162.11 136.34 162.11 138.89 109.75 143.21 107.98 317.36 103.4 318.62 105.19 143.47 59.47 135.57 57.97 132.79" style="fill:#cccfd4"/><polygon points="83.04 133.38 78.83 320.66 83.43 319.89 86.87 133 83.04 133.38" style="fill:#cccfd4"/><polygon points="142.19 133.91 146.4 315.06 151 315.06 146.02 134.3 142.19 133.91" style="fill:#cccfd4"/><polygon points="328.83 235.91 331.64 291.06 334.45 290.55 332.15 235.66 328.83 235.91" style="fill:#cccfd4"/><polygon points="4.25 341.76 295.61 380.45 472.31 366.47 479.8 361.48 489.94 353.23 528.03 362.06 790.45 341.3 730.3 307.05 629.21 303.79 545.35 309.74 354.48 302.81 70.1 318.99 51.91 318.74 4.25 341.76" style="fill:#abafb8"/><polygon points="69.91 317.29 75.17 319.66 188.51 328.83 374.92 313.47 491.43 321.12 602.58 302.92 355.47 294.3 69.91 317.29" style="fill:#709d52"/><polygon points="69.91 317.29 188.51 325.83 374.92 312.47 489.43 318.12 602.58 302.92 629.21 303.79 490.92 325.3 375.79 317.85 179.25 331.83 51.91 318.74 69.91 317.29" style="fill:#dddfe2"/><polygon points="467.34 307.98 472.51 305.87 478.64 308.17 470.98 309.89 467.34 307.98" style="fill:#e6e97c"/><polygon points="442.83 303.77 448.38 302.43 454.51 304.53 448.96 306.06 442.83 303.77" style="fill:#e6e97c"/><polygon points="495.87 304.92 504.68 301.85 513.49 305.49 503.15 307.6 495.87 304.92" style="fill:#e6e97c"/><polygon points="426.36 308.36 430.77 306.25 436.13 308.36 430.57 311.04 426.36 308.36" style="fill:#e6e97c"/><polygon points="332.53 304.72 339.23 301.08 346.13 304.15 338.85 307.98 332.53 304.72" style="fill:#e6e97c"/><polygon points="303.81 303.57 308.79 301.28 313.38 303.38 308.21 305.11 303.81 303.57" style="fill:#e6e97c"/><polygon points="272.02 313.72 275.85 310.66 281.4 312.19 276.62 315.06 272.02 313.72" style="fill:#e6e97c"/><polygon points="263.02 306.25 267.23 305.68 270.49 307.6 266.47 308.75 263.02 306.25" style="fill:#e6e97c"/><polygon points="235.06 316.6 241 312.96 247.51 314.49 241.38 317.94 235.06 316.6" style="fill:#e6e97c"/><polygon points="214.96 312.19 218.6 310.28 222.62 311.81 218.4 313.15 214.96 312.19" style="fill:#e6e97c"/><polygon points="502.7 345.8 461.08 343.95 479.8 361.48 501.17 364.18 511.57 355.72 502.7 345.8" style="fill:#787f8d;fill-rule:evenodd"/><polygon points="302.02 328.98 309.68 325.92 319.13 328.21 309.68 332.25 302.02 328.98" style="fill:#cccfd4"/><polygon points="302.02 328.98 300.17 332.04 307.98 333.06 310.22 331.64 309.68 330.25 302.02 328.98" style="fill:#9a9fa9;fill-rule:evenodd"/><polygon points="319.13 328.21 321.23 331.64 307.98 333.06 309.68 330.25 319.13 328.21" style="fill:#89909b;fill-rule:evenodd"/><polygon points="272.15 339.87 286.7 337.06 303.81 346.17 279.57 356.53 272.15 339.87" style="fill:#cccfd4"/><polygon points="272.15 339.87 268.19 354.07 278.92 358.6 285.75 354.07 280.57 351.53 272.15 339.87" style="fill:#9a9fa9;fill-rule:evenodd"/><polygon points="280.57 351.53 303.81 346.17 306.11 355.53 278.92 358.6 280.57 351.53" style="fill:#89909b;fill-rule:evenodd"/><polygon points="444.75 329.49 453.17 327.7 462.62 330 453.68 334.04 444.75 329.49" style="fill:#cccfd4"/><polygon points="444.75 329.49 442.45 336.06 452.02 337 455.66 334.04 453.68 332.04 444.75 329.49" style="fill:#9a9fa9;fill-rule:evenodd"/><polygon points="453.68 332.04 462.62 330 464.47 335.06 452.02 337 453.68 332.04" style="fill:#89909b;fill-rule:evenodd"/><polygon points="41.28 347.3 69.3 337.28 52.29 350.17 41.28 347.3" style="fill:#89909b;fill-rule:evenodd"/><polygon points="666.67 327.27 674.53 323.87 677.56 324.98 694.83 327.27 677.56 330 666.67 327.27" style="fill:#89909b"/><polygon points="694.83 327.27 705.27 325.4 734.65 328.28 702.68 328.59 694.83 327.27" style="fill:#89909b"/><polygon points="677.56 330 665.32 339.02 673 327.57 677.56 330" style="fill:#89909b"/><polygon points="708.28 320.23 702.06 326.94 706.79 326.98 708.28 320.23" style="fill:#89909b"/><polygon points="624.02 343.95 615.08 342.32 625.71 352 624.02 343.95" style="fill:#89909b;fill-rule:evenodd"/><polygon points="615.08 342.32 665.32 339.02 622.25 345.19 615.08 342.32" style="fill:#89909b;fill-rule:evenodd"/><polygon points="542.5 377.06 794.79 364.86 790.45 341.3 538.13 357.69 530.72 365.3 542.5 377.06" style="fill:#787f8d;fill-rule:evenodd"/><polygon points="538.13 357.69 502.7 345.8 501.17 364.18 542.5 377.06 538.13 357.69" style="fill:#89909b;fill-rule:evenodd"/><polygon points="4.25 341.76 0 362.29 296.61 388.96 303.98 378.81 295.61 373.45 4.25 341.76" style="fill:#89909b;fill-rule:evenodd"/><polygon points="479.8 361.48 295.61 373.45 296.61 388.96 483.93 379.9 479.8 361.48" style="fill:#787f8d;fill-rule:evenodd"/><polygon points="666.67 327.27 583.88 320.97 497.89 327.75 576.86 336.21 666.67 327.27" style="fill:#1d2432;fill-opacity:0.101961"/><polygon points="262.12 344.3 180.07 334 95.52 343.39 172.22 360.03 262.12 344.3" style="fill:#1d2432;fill-rule:evenodd;opacity:0.1"/><polygon points="461.08 343.95 382.32 335.72 307.67 340.72 383 354.56 461.08 343.95" style="fill:#1d2432;opacity:0.1"/><polygon points="132.55 245.52 140.7 189.12 122.53 178.53 107.38 219.19 132.55 245.52" style="fill:#734d60;fill-rule:evenodd"/><polygon points="224.44 189.42 235 223.85 232.76 237.96 217.13 251.6 204.85 212.03 208.58 177.26 224.44 189.42" style="fill:#734d60;fill-rule:evenodd"/><polygon points="179.19 196.02 194.55 173.87 212.39 179.55 217.13 251.6 173.17 256.6 132.26 252.13 137.26 190.28 146.68 182.81 151.23 170.21 179.19 196.02" style="fill:#8d637c;fill-rule:evenodd"/><polygon points="196.25 187.93 224.44 189.42 221.77 180.36 195.96 176.95 196.25 187.93" style="fill:#583f64;fill-rule:evenodd"/><polygon points="218.01 268.21 173.18 285.84 173.18 311.3 184.25 316.74 199.87 303.65 218.01 268.21" style="fill:#734d60;fill-rule:evenodd"/><polygon points="199.87 303.65 173.18 311.3 165.57 318.9 170 329.83 179.85 329.83 188.51 325.83 199.87 303.65" style="fill:#543042;fill-rule:evenodd"/><polygon points="173.18 311.3 176.8 290.19 161.87 276.81 131.76 263.46 140.37 307.08 157.6 318.07 173.18 311.3" style="fill:#8d637c;fill-rule:evenodd"/><polygon points="218.01 268.21 176.8 290.19 131.76 263.46 179.85 263.44 218.01 268.21" style="fill:#543042;fill-rule:evenodd"/><polygon points="140.37 307.08 173.18 311.3 170 329.83 157.6 333.06 145.32 332.11 140.37 307.08" style="fill:#734d60;fill-rule:evenodd"/><polygon points="169.28 340.28 184.94 341.69 207.42 340.28 188.51 325.83 170 329.83 169.28 340.28" style="fill:#7a578a;fill-rule:evenodd"/><rect x="169.28" y="340.28" width="38.14" height="5.38" style="fill:#583f64"/><polygon points="170 329.83 177.26 345.66 160.11 347.3 142.96 345.66 145.32 332.11 170 329.83" style="fill:#9471a4;fill-rule:evenodd"/><rect x="142.96" y="345.66" width="34.3" height="5.38" style="fill:#583f64"/><polygon points="196.91 228.38 201.74 251.69 152.78 252 157.08 234.71 166.73 207.61 179.19 196.02 190 207.61 196.91 228.38" style="fill:#734d60;fill-rule:evenodd"/><polygon points="163.4 181.44 129.91 192.77 122.53 178.53 153.93 169.31 163.4 181.44" style="fill:#583f64;fill-rule:evenodd"/><polygon points="153.93 169.31 157.08 234.71 179.19 196.02 167.85 174.34 153.93 169.31" style="fill:#aa8094;fill-rule:evenodd"/><polygon points="195.96 176.95 184.25 182.29 179.19 196.02 196.91 228.38 195.96 176.95" style="fill:#aa8094;fill-rule:evenodd"/><polygon points="181.08 215.18 184.25 220.99 178.44 224.94 174.22 218.88 181.08 215.18" style="fill:#aa8094;fill-rule:evenodd"/><polygon points="180.82 233.12 175.02 236.81 179.5 242.62 184.51 238.92 180.82 233.12" style="fill:#aa8094;fill-rule:evenodd"/><polygon points="132.26 252.13 167.8 251.91 179.76 254.9 191.89 251.75 217.13 251.6 218.01 268.21 191.07 266.73 182.06 264.94 167.89 265.45 131.76 263.46 132.26 252.13" style="fill:#583f64;fill-rule:evenodd"/><path d="M193.42,261l-24.09.15.09,13.54,23.18,1.28.82-15Zm-6.06,10.12H174.44l.26-5.27,12.93-.53Z" transform="translate(-1.53 -9.21)" style="fill:#aa8094;fill-rule:evenodd"/><polygon points="179.19 196.02 213.31 179.84 190.74 169.31 179.19 196.02" style="fill-rule:evenodd;opacity:0.1"/><polygon points="142.47 131.03 151.15 128.69 165.21 139.35 156.28 147.76 133.37 150.02 142.47 131.03" style="fill:#583f64;fill-rule:evenodd"/><polygon points="242.95 98.74 247.28 119.38 227.58 182.58 195.96 176.95 175.67 184.12 159.95 164.46 168.27 130.24 173.86 127.89 177.07 111.69 175.89 87.31 203.27 73.47 229.18 88.45 234.57 74.48 242.95 98.74" style="fill:#dfbda5;fill-rule:evenodd"/><polygon points="176.88 87.7 192.66 117.79 189 178.27 179.19 196.02 153.93 169.31 156.28 147.76 158.39 143.13 157.46 138.37 149.3 137.28 149.44 116.05 163.17 115.99 168.27 128.25 172.67 128.68 176.28 111.89 176.88 87.7" style="fill:#c3987b;fill-rule:evenodd"/><polygon points="238.92 126.12 224.44 120.43 192.66 117.79 204.85 130.49 211.2 151.83 238.92 126.12" style="fill:#c3987b;fill-rule:evenodd"/><polygon points="190 161.7 212.71 169.32 228.98 167.57 213.7 159.6 190 161.7" style="fill:#8b6651;fill-rule:evenodd"/><polygon points="190 161.7 211.2 151.83 220.6 153.6 228.98 167.57 190 161.7" style="fill:#7a578a;fill-rule:evenodd"/><polygon points="218.01 121.39 211.2 151.83 215.03 153.82 220.6 153.6 225.43 123.69 218.01 121.39" style="fill:#e8cab6;fill-rule:evenodd"/><polygon points="192.66 117.79 238.92 126.12 240.39 120.13 195.75 114.74 192.66 117.79" style="fill:#7a578a;fill-rule:evenodd"/><polygon points="153.15 120.54 160.08 120.74 161.77 134.42 153.15 120.54" style="fill:#8b6651;fill-rule:evenodd"/><polygon points="195.96 176.95 173.7 172.97 179.19 196.02 195.96 176.95" style="fill:#8b6651;fill-rule:evenodd"/><polygon points="157.46 138.37 164.34 139.35 156.28 147.76 157.46 138.37" style="fill:#8b6651;fill-rule:evenodd"/><polygon points="176.88 87.7 160.87 78.3 137.2 98.14 139.66 108.92 161.91 112.15 180.24 111.89 176.88 87.7" style="fill:#9471a4;fill-rule:evenodd"/><polygon points="216.01 56.7 185.4 41.4 167.77 55.79 204.85 77.63 231.16 92.81 234.66 79.64 216.01 56.7" style="fill:#9471a4;fill-rule:evenodd"/><polygon points="180.24 111.89 139.66 108.92 142.47 131.03 149.3 137.28 150.33 116.94 163.17 117.79 166.48 131.42 174.26 130.26 180.24 111.89" style="fill:#7a578a;fill-rule:evenodd"/><circle cx="230.54" cy="136.29" r="3.62" style="fill:#232a38"/><circle cx="205" cy="131.39" r="3.62" style="fill:#232a38"/><polygon points="149.12 228.9 107.38 219.19 111.5 252.46 145.8 252.79 151.88 246.09 149.12 228.9" style="fill:#aa8094;fill-rule:evenodd"/><polygon points="163.02 238.33 159.22 230.96 175.25 222.84 171.44 242.32 163.02 238.33" style="fill:#c3987b;fill-rule:evenodd"/><polygon points="172.28 195.07 164.35 265.25 261.4 272.93 220.01 202.53 179.19 196.02 172.28 195.07" style="fill:#72cbcc;fill-rule:evenodd"/><polygon points="179.19 196.02 170.98 259.24 261.4 272.93 277.11 207.3 179.19 196.02" style="fill:#fff;fill-rule:evenodd"/><polygon points="175.93 235.94 182.67 227 198.07 235.66 192.5 253.71 179.36 254.3 175.93 235.94" style="fill:#c3987b;fill-rule:evenodd"/><polygon points="155.43 239.8 159.22 230.96 182.67 227 179.36 254.3 159.53 253.01 155.43 239.8" style="fill:#dfbda5;fill-rule:evenodd"/><polygon points="149.12 228.9 145.8 252.79 159.53 253.01 159.22 230.96 149.12 228.9" style="fill:#543042;fill-rule:evenodd"/><polygon points="271.3 239.76 272.32 227.91 254.84 230.54 253.65 249.39 265.73 254.61 271.3 239.76" style="fill:#c3987b;fill-rule:evenodd"/><polygon points="273.63 241.64 272.32 227.91 265.73 254.61 273.63 241.64" style="fill:#dfbda5;fill-rule:evenodd"/><polygon points="181.88 104.71 218.31 115.98 247.28 119.38 248.19 115.07 181.88 104.71" style="fill:#c3987b;fill-rule:evenodd"/><polygon points="228.98 104.02 222.85 72.5 212.87 41.8 230.77 46.02 256.05 76.15 240.39 104.19 228.98 104.02" style="fill:#d8a537;fill-rule:evenodd"/><polygon points="208.67 81.31 209.4 65.61 183.49 34.88 151.34 50.43 154.28 74.46 137.2 98.14 218.31 112.13 221.62 79.96 208.67 81.31" style="fill:#d8a537;fill-rule:evenodd"/><polygon points="151.34 50.43 137.2 98.14 208.3 89.15 218.31 76.63 209.4 65.61 151.34 50.43" style="fill:#b68b2e;fill-rule:evenodd"/><polygon points="183.75 42.81 179.05 46.87 190.49 55.64 193.35 52.41 183.75 42.81" style="fill:#eeeff1;fill-rule:evenodd"/><polygon points="256.05 76.15 228.29 62.01 232.2 98.77 254.73 104.41 256.05 76.15" style="fill:#b68b2e;fill-rule:evenodd"/><polygon points="234.55 94 221.62 78.3 228.29 62.01 212.87 41.8 183.49 34.88 209.4 65.61 213.31 78 208.3 89.15 218.31 112.13 281.85 118.39 234.55 94" style="fill:#e9be61;fill-rule:evenodd"/><polygon points="209.4 65.61 228.29 62.01 234.55 94 208.3 89.15 209.4 65.61" style="fill:#e5b244;fill-rule:evenodd"/><polygon points="220.61 153.56 215.04 156.4 211.2 151.83 220.61 153.56" style="fill:#583f64;fill-rule:evenodd"/><polygon points="373.34 344.72 355.88 344.95 355.94 341.08 387.62 337.78 377.1 345.8 373.34 344.72" style="fill:#2e6a7d"/><polygon points="395.81 339.37 402.07 343.98 402.13 347.79 373.23 348.53 373.34 344.72 395.81 339.37" style="fill:#2e6a7d"/><polygon points="365.66 254.39 359.57 252.06 339.27 253.48 355.47 294.3 373.23 309.74 385.74 307.46 384.95 274.92 365.66 254.39" style="fill:#4b5464"/><polygon points="355.47 294.3 368.39 325.72 375.5 328.51 385.74 331.64 376.64 299.78 355.47 294.3" style="fill:#68707f"/><polygon points="368.39 325.72 355.94 341.08 383.81 341.08 383.92 335.11 380.85 327.31 368.39 325.72" style="fill:#388199"/><polygon points="372.77 276.63 376.64 299.78 393.48 313.94 406.05 298.93 410.03 281.45 392.34 258.77 372.77 276.63" style="fill:#68707f"/><polygon points="345.87 244.83 339.27 253.48 367.88 270.43 380.96 253.76 345.87 244.83" style="fill:#404857"/><polygon points="376.64 299.78 380.85 327.31 388.25 334.76 399.05 330.38 406.05 298.93 376.64 299.78" style="fill:#4b5464"/><polygon points="380.85 327.31 373.34 344.72 402.07 343.98 399.05 330.38 380.85 327.31" style="fill:#4298b4"/><polygon points="314.52 64.85 339.17 60.83 354.59 61.54 364.46 53.41 380.78 47.2 379.88 57.16 374.2 63.34 382.27 72.08 385.11 82.92 386.08 97.16 382.73 110.12 386.06 109.28 389.58 110.86 389.32 104.39 390.79 93.54 400.06 92.15 406.85 93.53 403.89 111.02 400.62 120.66 402.42 126.06 400.95 134.35 399.57 138.41 401.19 141.56 393.19 152.03 379.3 164.79 373.02 161.89 368.77 157.11 367.94 148.42 364.85 146.8 331.68 151.92 323.25 114.23 319.25 107.84 317.17 94.7 318.73 90.15 314.52 64.85" style="fill:#dfbda5"/><polygon points="367.69 54.37 366.64 82.53 373.51 105.71 378.63 146.03 364.85 146.8 367.9 151.3 368.77 157.11 379.3 164.79 401.67 146.48 402.57 125.34 402.24 111.65 389.58 110.86 390.07 104.01 388.77 98.4 384.96 101.73 385.11 82.92 381.34 73.16 374.2 63.34 378.48 56.36 380.78 47.2 372.14 51.04 367.69 54.37" style="fill:#c3987b"/><polygon points="402.34 111.12 389.58 110.86 402.57 125.34 403.91 116.85 402.34 111.12" style="fill:#8b6651"/><polygon points="364.85 146.8 384.13 143.42 379.3 164.79 372.53 161.89 368.77 157.11 365.87 149.48 364.85 146.8" style="fill:#8b6651"/><polygon points="367.08 100.97 362.31 91.29 351.69 92.65 350.9 104.82 373.51 105.71 352.46 111.34 349.9 116.27 344.63 85.78 364.83 88.32 369.06 93.83 367.08 100.97" style="fill:#c3987b"/><polygon points="332.87 106.07 329.34 97.43 319.43 97.91 317.43 100.19 322.18 111.41 340.27 111.29 340.92 114.75 323.25 114.23 316.86 105.58 315.8 93.02 333.65 91.47 337.21 104.84 332.87 106.07" style="fill:#c3987b"/><polygon points="347.64 88.72 333.09 90.75 340.27 111.29 341.45 117.9 345.67 118.61 349.9 116.27 348.7 109.61 347.64 88.72" style="fill:#e8cab6"/><polygon points="345.46 91.79 346.18 88.41 344.63 85.78 336.16 87.17 334.82 90.54 337.1 93.02 345.46 91.79" style="fill:#2e6a7d"/><path d="M347,101l3.24,17.82L375,114.93l-1.53-9.46.1-6-2.33-8.86L346.16,95Zm21.63,9.19L355,112.43l-2.16-12.57,13.48-2.33h0Z" transform="translate(-1.53 -9.21)" style="fill:#388199"/><path d="M338.63,102.23l3.17,18.27-24.47,4.13-4.26-24,24.62-4.24Zm-17.94,3.23,2.07,12,11.64-2.18-2-11.76h0Z" transform="translate(-1.53 -9.21)" style="fill:#388199"/><polygon points="361.92 125.81 337.34 129.98 342.66 137.93 359.07 135.45 361.92 125.81" style="fill:#8b6651"/><polygon points="359.14 128.32 340.78 131.32 342.09 133.24 358.48 130.64 359.14 128.32" style="fill:#fff"/><polygon points="394.31 106.79 395.6 96.1 401.21 96.46 394.31 106.79" style="fill:#8b6651"/><polygon points="314.52 64.85 355.93 43.14 356.6 53.72 354.59 61.54 314.52 64.85" style="fill:#cccfd4"/><polygon points="380.78 47.2 391.91 48.15 401.27 65.89 389.36 66.89 374.2 63.34 380.78 47.2" style="fill:#bbbfc6"/><polygon points="411.8 78.55 417.03 95.8 400.06 92.15 385.08 86.04 374.2 63.34 411.8 78.55" style="fill:#cccfd4"/><polygon points="384.86 87.7 383.36 103.55 390.07 104.01 390.86 92.91 405.3 94.72 402.34 111.12 402.57 125.34 417.03 95.8 408.85 93.19 384.86 87.7" style="fill:#89909b"/><polygon points="354.59 61.54 355.93 43.14 380.78 47.2 354.59 61.54" style="fill:#bbbfc6"/><polygon points="369.75 81.4 408.85 93.19 408.62 102.65 405.3 94.72 390.79 93.54 379.83 94.42 371.34 91.99 369.75 81.4" style="fill:#2e6a7d"/><polygon points="384.25 92.99 371.34 91.99 371.98 96.25 384.09 95.85 385.44 94.42 384.25 92.99" style="fill:#8b6651"/><polygon points="390.79 93.54 384.25 92.99 384.09 95.85 390.67 95.78 390.79 93.54" style="fill:#68707f"/><polygon points="401.67 146.48 404.34 157.57 379.83 171.11 369.76 174.35 362.31 165.99 358.21 155.35 365.83 149.49 372.94 160.41 401.67 146.48" style="fill:#cccfd4"/><polygon points="358.21 155.35 347.18 158.76 355.88 176.06 366.17 190 392.06 178.22 413.9 164.79 404.34 157.57 378.98 169.88 371.17 168.35 363.96 164.97 358.21 155.35" style="fill:#bbbfc6"/><polygon points="413.9 164.79 376.3 184.65 371.69 186.01 366.17 190 391.43 219.4 424.69 189.06 413.9 164.79" style="fill:#1c7678"/><polygon points="366.17 190 364.13 184.36 359.57 179.13 347.18 158.76 335.29 185.84 343.08 206.15 350.5 229.44 361.34 228.16 369.02 209.16 366.17 190" style="fill:#1c7678"/><polygon points="372.94 160.41 378.97 169.86 369.76 174.35 363.96 164.97 372.94 160.41" style="fill:#4b5464"/><polygon points="369.76 174.35 376.3 184.65 366.17 190 359.57 179.13 369.76 174.35" style="fill:#68707f"/><polygon points="415.55 181.35 366.17 190 355.71 191.81 361.33 228.17 354.51 236.17 365.38 254.39 368.9 277.2 428.97 268.04 424.73 240.72 418.32 237.44 415.55 181.35" style="fill:#47ad82"/><polygon points="365.38 254.39 426.48 251.93 424.73 240.72 385.34 244.66 376.87 248.7 371.41 250.06 365.38 254.39" style="fill:#1d2432;opacity:0.1"/><polygon points="343.08 206.15 361.34 228.16 362.31 234.53 354.51 237.15 358.21 243.81 365.38 254.39 339.1 253.48 343.08 206.15" style="fill:#368b8d"/><polygon points="413.9 164.79 413.29 217.84 411.49 229.27 438.08 238.63 433.53 176.17 413.9 164.79" style="fill:#72c2c3"/><polygon points="413.27 217.84 386.45 227.4 383.78 230.74 386.34 242.94 390.38 246.11 438.08 238.63 413.27 217.84" style="fill:#368b8d"/><polygon points="386.45 227.4 379.74 229.44 377.02 237.81 382.19 247.48 390.38 246.11 386.45 227.4" style="fill:#cccfd4"/><polygon points="379.74 229.44 370.43 225.32 361.42 228.72 362.01 232.57 369.02 232.57 379.74 229.44" style="fill:#c3987b"/><polygon points="347.18 158.76 323.74 194.09 332.27 201.71 343.08 206.15 347.18 158.76" style="fill:#368b8d"/><polygon points="343.08 206.15 323.74 194.09 307.93 183.79 304.97 183.68 297.17 194.54 297.4 200.01 326.81 222.87 343.08 206.15" style="fill:#72c2c3"/><polygon points="302.58 180.32 295.81 187.38 291.94 195.68 297.4 200.01 307.93 183.79 302.58 180.32" style="fill:#cccfd4"/><polygon points="296.47 189.06 291.94 195.68 287.11 192.61 288.64 176.68 296.61 181.36 296.47 189.06" style="fill:#8b6651"/><path d="M357,109.14a2.54,2.54,0,1,0,1.45-3.23A2.52,2.52,0,0,0,357,109.14Z" transform="translate(-1.53 -9.21)" style="fill:#232a38"/><path d="M325.8,114a2.46,2.46,0,0,0,3.23,1.45,2.48,2.48,0,1,0-1.76-4.63A2.44,2.44,0,0,0,325.8,114Z" transform="translate(-1.53 -9.21)" style="fill:#232a38"/><polygon points="263.23 192.42 255.67 202.67 267.66 198.26 266.38 194.06 263.23 192.42" style="fill:#89909b"/><polygon points="290.28 173.56 277.11 177.48 284.35 196.61 291.94 195.68 290.38 179.25 290.28 173.56" style="fill:#c3987b"/><polygon points="263.23 192.42 267.66 198.26 310.25 166.21 305.8 160.32 263.23 192.42" style="fill:#4b5464"/><polygon points="302.58 180.32 290.33 171.98 285.31 184.98 290.98 185.62 292.64 181.38 296.47 189.06 302.58 180.32" style="fill:#dfbda5"/><polygon points="379.74 229.44 362.01 232.57 360.69 239.82 358.67 244.55 361.74 248.87 365.38 254.39 382.19 247.48 379.74 229.44" style="fill:#dfbda5"/><polygon points="362.01 232.57 365.38 254.39 360.12 250.5 354.51 237.15 362.01 232.57" style="fill:#c3987b"/><polygon points="372.77 276.63 410.03 281.45 412.35 270.54 372.77 276.63" style="fill:#404857"/><polygon points="337.1 70.47 346.18 42.58 354.06 25.03 335.61 29.04 312.12 52.9 321.34 75.3 337.1 70.47" style="fill:#d8a537;fill-rule:evenodd"/><polygon points="371.34 21.17 406.56 34.32 400.19 57.05 411.8 78.55 345.67 76.17 345.67 46.22 371.34 21.17" style="fill:#d8a537;fill-rule:evenodd"/><polygon points="406.56 34.32 411.8 78.55 344.04 73.63 352.41 47.12 406.56 34.32" style="fill:#b68b2e;fill-rule:evenodd"/><polygon points="366.68 35.69 374.92 27.07 380.09 29.26 372.7 38.23 366.68 35.69" style="fill:#eeeff1;fill-rule:evenodd"/><polygon points="312.12 52.9 336.63 42.78 338.34 63.34 331.12 72.66 311.31 76.96 312.12 52.9" style="fill:#b68b2e;fill-rule:evenodd"/><polygon points="411.8 78.55 351.75 67.16 326.61 77.08 311.54 91.42 411.8 78.55" style="fill:#d8a537;fill-rule:evenodd"/><polygon points="354.06 25.03 336.63 42.78 337.1 55.06 329.14 69.5 287.36 86.98 311.54 91.42 351.75 67.16 348.47 56.63 352.41 47.12 371.34 21.17 354.06 25.03" style="fill:#e9be61;fill-rule:evenodd"/><polygon points="352.41 47.12 336.63 42.78 329.14 69.5 351.75 67.16 352.41 47.12" style="fill:#e5b244;fill-rule:evenodd"/><polygon points="349.9 116.27 346.56 121.43 341.45 117.9 349.9 116.27" style="fill:#8b6651"/><polygon points="596.98 185.43 601.27 203.66 622.86 198.06 620.34 183.89 612.73 180.4 596.98 185.43" style="fill:#c3987b"/><polygon points="651.31 273.91 667.75 319.19 664.47 321.41 666.67 327.27 677.56 324.98 677.56 318.24 673.5 318.19 661.73 270.16 651.31 273.91" style="fill:#446125"/><polygon points="648 273.21 642.09 258.14 659.11 260.86 658.18 276.89 648 273.21" style="fill:#5a753d"/><polygon points="654.33 265.64 658.18 276.89 667.35 273.21 665.11 262.75 654.33 265.64" style="fill:#648e43"/><polygon points="638.08 259.87 630.37 237.97 649.54 244.45 654.33 265.64 638.08 259.87" style="fill:#648e43"/><polygon points="646.7 246.25 654.33 265.64 669.01 262.81 666.81 244.63 653.8 242.34 646.7 246.25" style="fill:#709453"/><polygon points="654.93 180.69 668.96 181.49 669.81 188.96 658.16 189.05 653.84 184.27 654.93 180.69" style="fill:#709d52"/><polygon points="588.36 317.47 583.88 320.97 583.61 325.8 615.08 325.97 614.95 322.3 588.36 317.47" style="fill:#886822"/><polygon points="598.38 309.65 614.95 322.3 583.88 320.97 586.4 307.81 593.93 299.73 598.38 309.65" style="fill:#c3a414"/><polygon points="537.33 280.57 540.37 291.57 542.6 299.62 556.83 297.7 569.15 296.05 550.1 281.88 537.33 280.57" style="fill:#886822"/><polygon points="621.05 282.46 609.3 292.16 605.26 295.4 588.93 293.18 580.99 286.35 605.53 267.47 621.05 282.46" style="fill:#886822"/><polygon points="612.48 282.54 609.3 292.16 598.38 309.65 586.4 307.81 588.93 293.18 595.23 285.45 597.8 258.1 612.48 282.54" style="fill:#68707f"/><polygon points="594.48 281.2 590.31 285.24 588.93 293.18 609.3 292.16 615.01 283.01 594.48 281.2" style="fill:#4b5464"/><polygon points="548.78 287.96 540.39 291.56 537.62 308.76 543.45 316.12 550.27 309.95 556.83 297.7 548.78 287.96" style="fill:#68707f"/><polygon points="558.68 282.39 560.07 291.78 556.83 297.7 540.46 291.57 541.87 282.71 558.68 282.39" style="fill:#4b5464"/><polygon points="592.49 215.16 602.35 232.58 598.04 276.09 583.83 283.11 577.48 278.3 573.3 286.91 551.13 285.36 539.28 271.71 546 240.81 554.41 233.81 555.29 221.61 549.99 210.46 592.49 215.16" style="fill:#dcbf28"/><polygon points="537.62 308.76 532.25 325.16 547.96 329.41 555.72 325.35 550.27 309.95 537.62 308.76" style="fill:#c3a414"/><polygon points="537.33 280.57 539.28 271.71 573.3 286.91 569.15 296.05 537.33 280.57" style="fill:#c3a414"/><polygon points="618.07 274.15 602.35 232.58 588.88 256.52 577.48 278.3 584.81 280.96 616.83 281.13 618.07 274.15" style="fill:#c3a414"/><polygon points="550.63 223.32 546 240.81 569.67 249.06 602.35 232.58 598.89 223.48 578.86 222.72 550.63 223.32" style="fill:#886822"/><polygon points="546.99 237.08 567.89 242.35 578.86 222.72 550.63 223.32 546.99 237.08" style="fill:#947125"/><polygon points="577.48 278.3 618.07 274.15 621.05 282.46 580.99 286.35 577.48 278.3" style="fill:#b68b2e"/><polygon points="569.67 249.06 588.88 256.52 605.04 240.63 602.35 232.58 580 232.65 569.67 249.06" style="fill:#b68b2e"/><polygon points="532.25 325.16 555.72 325.35 556.57 330.45 532.57 330.53 532.25 325.16" style="fill:#886822"/><polygon points="566.03 163.26 596.41 159 608.14 179.88 608.15 193.4 601.27 203.66 566.03 163.26" style="fill:#dfbda5"/><polygon points="539.17 159.64 545.26 187 555.53 214.71 585.74 210.29 588.17 200.88 602.19 178.42 596.41 159 589.25 153.35 556.24 150.91 547.04 156.84 539.17 159.64" style="fill:#4b5464"/><polygon points="585.68 187.46 546.78 196.9 550.63 223.32 598.89 223.48 602.37 194.49 585.68 187.46" style="fill:#404857"/><polygon points="548.42 208.12 556.47 194.38 552.92 187.25 539.17 159.64 531.98 186.75 548.42 208.12" style="fill:#dfbda5"/><polygon points="552.91 187.25 548.42 208.12 588.59 192.85 587.56 191.11 569.3 185.82 552.91 187.25" style="fill:#c3987b"/><polygon points="568.5 206.66 570.58 192.84 582.56 181.49 600.29 179.01 588.81 193.43 568.5 206.66" style="fill:#71561c"/><polygon points="568.5 206.66 572.58 199.1 582.56 181.49 558.18 183.78 568.5 206.66" style="fill:#886822"/><polygon points="594.35 184.88 602.19 178.42 593.94 174.06 582.56 181.49 594.35 184.88" style="fill:#71561c"/><polygon points="618.61 201.41 621.64 190.91 633.62 179.56 641.52 185.72 639.86 191.5 618.61 201.41" style="fill:#71561c"/><polygon points="618.61 201.41 633.62 179.56 612.73 180.4 618.61 201.41" style="fill:#886822"/><polygon points="651 192.57 658.16 189.05 654.93 180.69 648.75 178.94 645.64 185.03 651 192.57" style="fill:#71561c"/><polygon points="633.62 179.56 648.75 178.94 651 192.57 639.86 191.5 633.62 179.56" style="fill:#886822"/><polygon points="557.55 152.69 556.64 119.06 555.87 92.6 570.66 93.77 571.43 84.38 625.4 85.48 622.68 93.07 586.63 106.5 578.46 157.88 566.71 160.56 557.55 152.69" style="fill:#c3987b"/><polygon points="556.73 108.51 563.15 63.34 610.53 69.42 624.79 84.83 622.68 93.07 599.77 97.27 571.63 96.89 570.94 105.77 565.72 108.55 564.94 110.03 556.73 108.51" style="fill:#b68b2e"/><polygon points="563.15 63.34 549.48 76.27 537 88.98 536.12 105.52 533.71 147.35 547.04 156.84 560.61 152.39 556.73 108.51 563.15 63.34" style="fill:#c3a414"/><polygon points="560.93 82.98 554.26 88.01 556.4 94.88 560.93 82.98" style="fill:#fff"/><polygon points="560.93 82.98 556.73 108.51 545.42 79 546.13 69.93 563.15 63.34 560.93 82.98" style="fill:#886822"/><polygon points="536.12 105.52 556.73 108.51 533.71 147.35 522.18 139.17 536.12 105.52" style="fill:#dcbf28"/><polygon points="565.01 125.51 556.21 124.16 556.73 108.51 565.72 108.55 565.01 125.51" style="fill:#dfbda5"/><polygon points="627.27 94.21 624.79 84.83 563.15 63.34 597.58 92.78 627.27 94.21" style="fill:#dcbf28"/><polygon points="570.99 89.48 561.82 76.66 563.15 63.34 599 92.77 570.99 89.48" style="fill:#c3a414"/><polygon points="556.73 108.51 542.67 82.31 546.13 69.93 556.73 108.51" style="fill:#71561c"/><polygon points="587.27 155.41 570.06 156.15 560.61 152.39 555.66 154 574.72 170.2 587.27 155.41" style="fill:#8b6651"/><polygon points="562.73 118.08 559.23 110.87 562.89 111.01 562.73 118.08" style="fill:#8b6651"/><polygon points="558.24 121.81 554.8 126.08 559.1 129.61 562.8 125.11 558.24 121.81" style="fill:#fff"/><polygon points="617.43 161.29 596.41 159.01 570.06 156.15 570.99 89.48 621.18 93.23 625.17 108.49 617.43 161.29" style="fill:#dfbda5"/><polygon points="580.92 106.56 600.4 126.7 620.35 110.7 602.5 111.44 580.92 106.56" style="fill:#c3987b"/><polygon points="607.31 109.75 620.35 110.7 605.64 114.47 607.31 109.75" style="fill:#947125"/><polygon points="597.58 108.49 580.92 106.56 599 113.8 597.58 108.49" style="fill:#947125"/><polygon points="602.51 141.69 586.96 138.05 582.71 133.99 585.36 141.23 597.06 146.13 602.51 141.69" style="fill:#b68b2e"/><polygon points="582.71 133.99 587.32 139.42 596.46 142.48 602.51 141.69 598.55 139.66 588.68 137.82 582.71 133.99" style="fill:#886822"/><path d="M615.37,125.54a2.88,2.88,0,0,0-3.42,2.09,3.2,3.2,0,0,0,2.61,3.48,2.65,2.65,0,0,0,3.18-2.4A2.85,2.85,0,0,0,615.37,125.54Z" transform="translate(-1.53 -9.21)" style="fill:#232a38"/><path d="M591.26,123.06a2.89,2.89,0,0,0-3.42,2.09,3.23,3.23,0,0,0,2.63,3.49,2.66,2.66,0,0,0,3.17-2.4A2.86,2.86,0,0,0,591.26,123.06Z" transform="translate(-1.53 -9.21)" style="fill:#232a38"/><polygon points="630.37 237.97 648.49 236.32 666.81 244.63 646.7 246.25 630.37 237.97" style="fill:#90b96d"/><polygon points="635.69 239.02 624.02 216.92 654.03 222.72 658.94 242.35 647.59 244.12 635.69 239.02" style="fill:#648e43"/><polygon points="647.59 244.12 642.31 231.64 623.16 218.74 635.69 239.02 647.59 244.12" style="fill:#5a753d"/><polygon points="602.19 178.42 626.81 179.83 651 192.57 625.17 203.2 602.19 178.42" style="fill:#b6d285"/><polygon points="625.4 192.84 624.53 211.34 642.31 231.64 661.82 229.63 651 192.57 625.4 192.84" style="fill:#90b96d"/><polygon points="584.8 184.88 572.55 185.88 572.12 193.03 588.3 191.98 584.8 184.88" style="fill:#709d52"/><polygon points="625.94 103.28 625.17 108.49 604.25 107.62 570.06 96.82 625.94 103.28" style="fill:#c3987b;fill-rule:evenodd"/><polygon points="611.07 89.48 602.51 65.47 595.44 48.73 616.23 53.23 635.65 74.98 627.27 95.2 611.07 89.48" style="fill:#d8a537;fill-rule:evenodd"/><polygon points="605.16 105.13 604.04 84.38 603.83 67.94 577.93 44.93 550.87 55.85 550.8 73.26 537 88.98 605.16 105.13" style="fill:#d8a537;fill-rule:evenodd"/><polygon points="570.06 58.35 575.42 55.63 587.08 63.8 583.1 68.77 570.06 58.35" style="fill:#eeeff1;fill-rule:evenodd"/><polygon points="550.87 55.85 537 88.98 595.91 83.96 550.87 55.85" style="fill:#b68b2e;fill-rule:evenodd"/><polygon points="635.65 74.98 613.5 64.67 610.39 77.18 616.24 92.77 633.34 95.2 635.65 74.98" style="fill:#b68b2e;fill-rule:evenodd"/><polygon points="617.24 87.61 609.57 76.84 613.5 64.67 595.44 48.73 577.93 44.93 597.84 67.11 602.34 73.53 595.91 83.96 605.16 105.13 646.57 101.44 617.24 87.61" style="fill:#e9be61;fill-rule:evenodd"/><polygon points="597.84 67.11 613.5 64.67 617.24 87.61 595.91 83.96 597.84 67.11" style="fill:#e5b244;fill-rule:evenodd"/><polygon points="607.31 109.75 597.58 108.49 598.18 130.32 602.19 131.6 605.64 131.15 607.31 109.75" style="fill:#e8cab6"/><polygon points="598.18 130.32 602.29 133.26 605.64 131.15 598.18 130.32" style="fill:#8b6651"/><polygon points="602.19 178.42 610.82 192.84 595.88 195.75 588.81 193.43 582.56 181.49 602.19 178.42" style="fill:#886822"/><polygon points="619.98 222.72 602.19 178.42 625.4 192.84 642.31 231.64 619.98 222.72" style="fill:#648e43"/></svg>